<?xml version="1.0" encoding="UTF-8"?>
<svg id="Layer_1" data-name="Layer 1" xmlns="http://www.w3.org/2000/svg" viewBox="0 0 520.19 396">
  <defs>
    <style>
      .cls-1 {
        fill: #fff;
      }
    </style>
  </defs>
  <path class="cls-1" d="m520.19,396H0V0h520.19v396ZM95.32,250.78c.63.85,1.58,1.57,1.72,2.42.31,1.93,0,3.97.36,5.87.47,2.4,1.26,4.75,2.17,7.03.27.68,1.41,1.03,2.16,1.51.63.4,1.28.77,1.71,1.03-1.16.7-2.1,1.27-3.03,1.84,1.03.47,2.06.95,3.09,1.41.14.06.31.06.46.05.96-.07,1.91-.15,2.87-.23-.11-1.12-.1-2.26-.34-3.34-.43-2-1.06-3.95-1.51-5.95-.32-1.39-.42-2.83-.74-4.23-.24-1.05-.7-2.06-1.02-3.1-.7-2.31-1.41-4.61-2.01-6.95-.11-.44.15-1.34.44-1.44.54-.19,1.63-.16,1.79.15.81,1.55.45,4.06,3.38,3.67,0,0,.04.14.04.22.12,2.58.95,1.36,1.89.41.9-.91,1.56-.66,2.02.59.8,2.13,3.79,2.77,5.03,1.6,1.05.23,1.81.63,2.49.51,1.64-.29,2.26.15,2.31,1.9.05,1.91,1.33,2.45,2.81,1.58.91-.53,2.03-.68,2.93-.96.25-.71.52-1.77,1.02-2.7.15-.27.97-.18,1.49-.25.09,1.03.19,2.07.26,2.9.68.21,1.32.41,1.95.6,2.54.8,5.08,1.57,7.61,2.4.97.32,2.15.54,2.79,1.23,1.32,1.4,2.44,2.05,3.96-.08,2.08,3.34,4.73,4.94,8.18,3.29.43,1.02.73,1.72,1.03,2.43.68-.49,1.37-.96,2.02-1.48.72-.58,1.38-1.24,2.13-1.78.17-.12.64.09.9.25.1.06.06.61.03.61-2.87.53-.28,2.17-.68,2.81.97,0,2.15-.37,2.8.07,2.09,1.41,4.32,1.12,6.6,1.11,1.09,0,2.19.4,3.6.68-.9.48-1.46.77-2.02,1.07l.53.68h6.62c1.42,3.12,4.99,2.84,7.89,3.88.13-.72.22-1.22.31-1.73.47.14,1.14.13,1.39.45,2.33,2.96,5.47,2.8,8.71,2.46.78-.08,1.59.16,2.38.25-.1.76-.21,1.52-.34,2.47,1.24-1.4,3.44,2,4.64-1.34,1.83,1.07,3.63,2.26,5.55,3.19.95.46,2.12.56,3.21.61.87.03,1.75-.26,2.81-.45.15-.9.34-2.06.52-3.22.3.03.59.06.89.1v3.82c2.16.33,4.44.54,6.65,1.07,1.42.34,2.69,1.4,4.11,1.68,2.59.52,5.24.8,7.88.99,1.18.08,2.4-.3,3.89-.52.21.23.91.78,1.35,1.49,1.28,2.07,3.31,3.67,3.14,6.6-.15,2.77,3.34,6.2,5.96,6.33,1.08-2.02.99-4.11.4-6.28-.61-2.25-1.16-4.52-1.56-6.81-.11-.61.33-1.84.72-1.93,2.18-.52,3.79-2.99,6.43-1.92.22.09.79-.08.83-.23.6-2.4,2.78-1.45,4.35-1.99-.12-.49-.22-.92-.42-1.79,1.01.76,1.65,1.23,2.54,1.9v-1.81c1.87,0,3.64.23,5.3-.06,1.88-.34,2.55-3.63,5.26-2.33,0,0,.06-.16.12-.18,2.22-.9,4.49-2.65,6.64-2.49,3.88.27,5.5-2.44,8.36-4.32-.05-.01.43.25.84.17,1.74-.33,3.68.36,5.19-1.21,1.09-1.13,2.38-2.06,3.62-3.04.17-.13.67-.11.82.04,1.49,1.44,2.43.23,3.45-.66.44-.39.89-.8,1.4-1.09.86-.48,1.77-.86,2.66-1.28-.09-.23-.18-.46-.28-.69,3.05.61,5.75.53,7.59-2.6.52-.89,2.01-1.36,3.15-1.7,2.55-.76,5.45-.83,6.35-4.15.1-.38.93-.56,1.43-.83.1.12.19.25.29.37-.35.46-.71.92-1.09,1.42,2.41,1.08,2.78-.71,3.38-2.29,2.71,1.53,4.15-.25,5.68-1.7.76.24,1.55.36,2.07.05,2.2-1.3,4.31-2.74,6.47-4.1.95-.6,1.95-1.14,2.92-1.7.42-.24.84-.48,1.28-.7.85-.44,2.17-.65,2.48-1.33,1.2-2.58,3.08-1.88,4.61-1.49,1.91-1.9,3.66-3.64,5.61-5.58.39.97.63,1.56.96,2.35,3.7-1.49,6.99-3.21,8.85-6.82,2.83.65,8.44-2.9,8.56-5.48-2.45-.15-3.58,3.9-6.46,2.2.58-.4,1.46-.35,1.83-.76,1.77-1.98,3.66-3.14,6.35-1.75.24.13.75-.1,1.05-.29,1.75-1.14,4.02-1.95,5.1-3.56,2.08-3.09,5.79-2.88,8.43-4.88,1.78-1.34,3.41-2.17,3.85-4.49.08-.43.91-.72,1.68-1.29-.11,1.34-.17,2.07-.25,3.02,2.12-.36,3.74-.79,3.75-3.19,0-1.84,1.18-2.29,2.43-1.36,1.14.85,1.7.37,2.64-.14,1.95-1.07,3-3.71,5.81-3.35.2.03.62-.8.74-1.28.15-.62.1-1.28.17-2.39.78.84,1.22,1.31,1.69,1.81.42-.52.83-1.04,1.77-2.2.69,2.39,1.65,4.22,1.62,6.04-.03,1.72.95,2.3,1.92,2.2.84-.09,1.84-1.13,2.27-1.99.37-.73.01-1.81,0-2.74-.06-2.84-.93-5.86,1.49-8.19.5-.47,1.6-.68,2.3-.51,2.06.53,4.02,1.42,6.07,1.96,1.59.42,3.1,1.66,4.9.73.03-.01.11.09.25.21-.28.35-.55.71-.83,1.07.09.16.18.32.28.48,1.33-.47,2.66-.95,4.01-1.43.38.32.85.72,1.37,1.15,1.47-2.51-.12-3.61-3.09-5.01-4.72-2.22-9.52-4.28-14.32-6.32-1.38-.59-1.72-1.44-1.76-2.88-.13-4.66-.41-9.32-.74-13.98-.13-1.8-2.06-2.9-4.22-2.57-1.72.26-2.51,1.2-2.37,3.08.29,3.87.41,7.75.55,11.63.03.85-.12,1.71-.2,2.74-6.3-3.95-12.25-7.66-18.37-11.5-.24,1.4-.39,2.26-.54,3.12-.23.07-.46.14-.68.2-.44-.88-.84-1.78-1.32-2.63-.47-.81-.88-1.74-1.57-2.31-.97-.8-2.17-1.34-3.28-1.97-2.88-1.61-5.16-5.02-9.38-2.89.22-2.58-1.8-3.11-3.32-3.98-2.44-1.4-4.97-2.66-6.61-3.53-.7.3-1.43.9-1.87.74-1.04-.4-2.32-.95-2.81-1.82-1.37-2.45-3.58-3.5-5.99-4.45-1.65-.65-3.22-1.48-4.86-2.15-2.76-1.13-5.48-2.61-8.36-3.13-1.61-.29-2.84.05-2.48-2.18h-3.56c.08-3.38-3.45-2.43-4.81-4.18-.49-.63-1.66-.72-2.5-1.09-2.02-.89-5.51.9-5.78-3.17,0-.11-.2-.25-.33-.31-1.99-.83-4.06-1.52-5.96-2.51-2.13-1.11-4.12-2.5-6.41-3.92-.3.24-1.11.9-2.4,1.94.19-1.16.16-1.8.41-2.29.98-1.91-.42-2.75-1.62-3.58-1.41-.99-2.04.28-2.84,1.12-.38.4-1.05.93-1.41.83-.44-.13-.82-.84-.99-1.37-.41-1.31-.67-2.66-1-4-.12.18-.25.37-.37.55-1.52-.52-3.58-.6-4.45-1.66-1.62-1.95-3.43-2.39-5.67-2.28-1.62.08-2.74-.35-3.36-2.15-.69-2.02-2.51-2.85-4.54-2.31-2.32.61-3.24-.41-3.89-2.39-.24-.74-.95-1.78-1.56-1.86-2.48-.34-4.99-.28-7.02-2.21-.51-.48-1.7-.15-2.46-.47-2.87-1.2-5.71-2.48-8.53-3.81-.88-.41-1.61-1.14-2.46-1.62-.64-.36-1.57-.38-2.03-.87-1.89-2.01-3.6-2.27-5.77-.63-.34-.84-.68-1.67-1-2.45-.57.6-1.03,1.08-1.49,1.56-.46-.56-1.22-1.07-1.33-1.7-.33-1.89-1.76-2.46-3.2-3.04-3.35-1.36-6.68-2.77-10.09-3.98-1.42-.51-2.78-1.55-4.32.76-1.04,1.56-1.37,2.84-1.53,4.52-.26,2.63-.81,5.23-1.2,7.58-.83.36-1.64.72-2.45,1.08.63.39,1.25.78,2.12,1.31-.55.6-1.15,1.24-1.89,2.05-.35-.69-.59-1.15-.95-1.86-1.02,1.35-1.85,2.44-2.68,3.54,1.23,1.95,1.19,2.22-.41,3.42-.3-.8-.61-1.59-.91-2.4-.49.21-.7.23-.76.34-2.23,3.96-4.72,7.68-7.75,11.12-1.31,1.49-2.2,2.31-4.19,2.3-2.61-.01-2.87.58-2.21,3.16.3,1.19.22,2.54.76,3.58.44.83,1.64,1.88,2.38,1.79,1.81-.21,3.55-1.03,5.32-1.6.71,2.52,2.58,3.87,5.1,3.69.45,2.19,2.3,1.65,3.8,1.9.61.1,1.33.16,1.79.51,1.2.92,2.29,1.99,3.33,2.91.88-.82,1.52-1.41,2.03-1.89.54,1.31,1.1,2.3,1.36,3.36.63,2.61,1.25,5.24,1.62,7.89.2,1.43-.33,2.97-.15,4.41.15,1.19.85,2.3,1.31,3.45.19-.08.37-.16.56-.24-.16-3.33-.31-6.66-.47-9.99l.68.94c.28-.89.56-1.78.84-2.66.22.05.45.1.67.15-.06,1.15-.12,2.3-.18,3.45-.09,1.96-.21,3.92-.26,5.89-.07,2.45,0,4.92-.19,7.36-.03.4-1.08.72-1.66,1.07-.15-.54-.35-1.07-.44-1.61-.13-.79-.17-1.6-.25-2.39-.27.01-.54.02-.8.03-.09,1.26-.3,2.54-.23,3.79.09,1.72.14,3.58,2.88,2.97.49-.11,1.22.8,2.02,1.36-1.87.33-3.29.58-4.88.85.11,1.92.21,3.8.32,5.68.23,0,.47,0,.7,0,.11-1.23.22-2.46.37-4,2.61,4.42,1.64,8.48.15,12.73-.56-1.17-1.07-2.22-1.57-3.27-.38.63-.29,1.11-.24,1.59.33,2.86.79,5.71.94,8.57.24,4.64.28,9.3.41,13.95.18-.01.36-.03.55-.04.17-.85.35-1.69.52-2.54.18.02.36.04.54.06.16.63.32,1.27.47,1.88,1.08-.15,2.03-.28,2.97-.41.07.2.14.4.21.59-1.13,1.02-2.26,2.03-3.55,3.2.78.42,1.33.71,1.88,1-.21.07-.42.14-.63.21.18,2.02.02,4.16.65,6.04.64,1.91,1.35,3.31-1.09,4.37-.44.19-.46,1.34-.77,2.37,1.31-.36,1.96-.54,2.94-.81,0,2.05-.04,3.87.01,5.7.03,1.22.02,2.49.33,3.65.5,1.89,1.24,3.72,1.85,5.5-3.19,1.21-2.68-1.43-3.6-2.49.12,3.8.35,7.49.78,11.15.09.77,1.07,1.41,1.34,2.21.52,1.53.9,3.12,1.18,4.71.13.74.17,1.7-.19,2.3-.8,1.35-1.87,2.53-2.84,3.78l.88.16c.51.69,1.4,1.38,1.4,2.07,0,.62-.97,1.24-1.52,1.86-.75-.68-1.56-1.31-2.21-2.07-.33-.38-.34-1.02-.53-1.53-.67-1.75-3.98-3.15-5.87-2.51-1.18.4-1.5,2.81-.57,4.87.38.84.94,1.61,1.48,2.37.95,1.33,2.2,2.52,2.87,3.97,1.2,2.58,2.16,5.29,3.02,8.02.29.93.12,2.16-1.51,1.89-6.33-1.03-12.67-1.95-18.97-3.11-4.42-.81-8.75-2.13-13.19-2.87-6.11-1.03-12.17-1.94-17.97-4.43-4.28-1.85-8.91-2.93-13.42-4.23-3.79-1.08-7.62-1.98-11.44-2.95-3.54-.89-7.33-1.23-10.57-2.75-6.66-3.12-13.9-3.93-20.79-6.07-7.57-2.36-15.1-4.82-22.62-7.35-1.13-.38-1.79-1.54-.54-2.56,2.91-2.36,5.76-4.84,8.92-6.83,3.35-2.1,6.18-4.52,8.63-7.67,1.6-2.06,4.95-2.47,6.1-5.32.03-.06.36.04.44-.05,2.18-2.1,5.66-2.96,6.34-6.36.64-.22,1.43-.25,1.8-.67,3.51-3.94,6.95-7.94,10.41-11.93,1.66-1.92,3.24-3.91,4.97-5.76,2.87-3.07,6.58-5.49,7.48-10.02.08-.38.29-.72.41-1.03.83.68,1.2.99,1.62,1.34,1.32-1.79,2.5-3.39,4.11-5.59,4.08-1.21,6.81-4.9,8.93-9.46,1.66.39,2.64-.28,2.8-2.22.04-.52.59-1.09,1.05-1.46,1.68-1.36,3.42-2.64,5.12-3.96.16-.12.23-.35.37-.58h-1.83c1.16-.9,1.91-1.35,2.5-1.96,1.82-1.9,4.7-2.82,5.23-5.97.16-.94,1.11-1.86,1.9-2.56.86-.76,2.22-1.03,2.91-1.88,1.7-2.06,3.14-4.34,4.7-6.52.11-.15.35-.19.78-.41-.17.73-.29,1.23-.41,1.72.82-.74,1.1-1.72,1.71-2.42,1.6-1.86,3.41-3.55,4.97-5.45.39-.47.44-1.67.11-2.18-.54-.84-1.53-1.39-2.22-1.97-2.76,3.17-6.58,5.29-7.11,8.89-1.33.84-2.31,1.21-2.93,1.9-2.25,2.5-4.39,5.09-6.54,7.69-1.55,1.87-3.02,3.8-4.54,5.69-.24.29-.54.55-.85.76-1.66,1.14-3.19,2.18-4.43,4.04-2.23,3.32-5.22,6.18-8.11,9.01-2.27,2.22-5.01,3.99-5.54,7.43-.68-.63-1.21-1.13-1.74-1.63-.39.6-.75,1.23-1.19,1.79-1.4,1.78-2.75,3.61-4.27,5.28-2.6,2.84-6.24,4.74-7.63,8.65-.07.2-.26.48-.43.52-2.75.63-3.92,3.16-5.77,4.84-.7.64-1,1.7-1.49,2.58.18.28.02.33-.09.44-2.6,2.55-5.36,4.88-8.44,6.87-.9.58-1.07,2.2-1.81,3.15-1.54,1.96-3.24,3.79-4.96,5.78-1.29-.45-2.85.49-3.05,2.1-.07.54-.21,1.27-.58,1.55-2.89,2.14-5.85,4.19-8.79,6.27-.87.62-1.97,1.06-2.59,1.87-2.44,3.19-5.97,4.79-9.27,6.77-1.1.66-2.08,1.53-3.12,2.31-1.39.86-2.09.32-2.4-1.57-.31-1.9-1.49-3.65-2.11-5.52-.57-1.76-.9-3.6-1.32-5.32-4.47.47-5.43,1.6-4.83,5.25.15.92.53,1.8.66,2.72.17,1.19.19,2.39.28,3.63q-3.37-.21-3.22,4.72c1.58-.35,3.04-.68,5.25-1.18-.59,1.65-1,2.82-1.43,4.04.51.44,1.23,1.07,1.95,1.71-.15.18-.29.36-.44.54-.64-.26-1.28-.74-1.91-.73-.62.01-1.67.42-1.76.83-.57,2.51-2.72,3.59-4.6,4.24-1.91.67-2.24,1.56-2.04,2.73-1.21,1.26-2.06,2.91-3.14,3.09-2.1.35-2.52,1.71-3.17,3.05.59.44,1.01.95,1.54,1.11,1.05.31,2.55.98,3.19.53,2.38-1.68,4.52-3.71,6.67-5.69,2.15-1.97,4.19-4.04,6.31-6.03.31-.3.8-.41,1.27-.63Zm361.36,37.98c-.91-.85-1.65-1.8-1.88-1.69-.85.4-1.52,1.16-2.26,1.78l1.86,2.21c.63-.64,1.26-1.27,2.28-2.3ZM39.82,376.37c-.43-1.6-.61-2.46-.91-3.29-.18-.49-.54-.91-.82-1.36-.59.41-1.52.72-1.68,1.26-.21.71-.1,1.92.38,2.35.67.59,1.8.66,3.03,1.04ZM457.15,123.77c-.94-.87-1.57-1.45-2.2-2.03-.55.71-1.39,1.36-1.57,2.16-.3,1.31.62,2.17,1.88,1.95.6-.11,1.05-1.11,1.89-2.09ZM123.91,207.94c-.83-1.2-1.43-2.06-2.02-2.91-.61.57-1.83,1.34-1.72,1.68.31.94,1.11,1.76,1.86,2.48.09.09,1-.65,1.88-1.25Zm249.89,81.13c-.93-.93-1.5-1.51-2.08-2.09-.58.77-1.43,1.49-1.62,2.35-.09.42,1.01,1.49,1.65,1.56.51.05,1.13-.97,2.04-1.83Zm-249.61-.19c-.08-.25-.16-.51-.24-.76-1.01.22-2.59.15-2.89.73-.45.87-.14,3.15.11,3.19,2.43.38,2.14-1.94,3.02-3.16Zm84.03,82.85c-.96-.75-1.72-1.53-1.88-1.42-.79.54-1.72,1.2-2.01,2.03-.17.47.8,1.34,1.25,2.03.75-.75,1.51-1.51,2.64-2.64Zm83.04-.34c-.94-.69-1.55-1.47-2.03-1.41-.61.09-1.63.94-1.58,1.35.12.93.79,1.78,1.24,2.66.66-.72,1.32-1.45,2.37-2.6Zm80.74-245.15c.5-1.1,1.02-1.89,1.19-2.76.09-.48-.41-1.08-.64-1.63-.69.32-1.87.54-1.97.99-.27,1.28-.84,2.99,1.41,3.4Zm80.99,246.68c2.49,1.19,2.72-.16,2.55-3.87-3.14-.21-1.98,2.32-2.55,3.87Zm-245.45-165.61c-.82-1.02-1.32-1.63-1.81-2.24-.58.55-1.65,1.12-1.62,1.64.04.8.84,1.55,1.31,2.33.59-.47,1.17-.95,2.12-1.72Zm162.18,164.06c.88.87,1.4,1.76,2.05,1.87.45.08,1.65-1.11,1.55-1.37-.33-.88-1.09-1.6-1.69-2.38-.53.52-1.06,1.04-1.91,1.87Zm-78.91-82.09c-.97-.79-1.57-1.29-2.18-1.78-.39.53-1.14,1.1-1.09,1.59.1.87.67,1.7,1.05,2.54.61-.65,1.23-1.3,2.22-2.35Zm-.91-250.51c-2.69-1.29-2.58.85-2.93,2.13-.11.4.48,1.44.74,1.43,2.65-.06,1.2-2.44,2.2-3.57ZM33.56,123.22c.95.85,1.59,1.8,1.99,1.71.65-.15,1.57-.98,1.58-1.54,0-.68-.8-1.38-1.26-2.07-.63.52-1.26,1.03-2.31,1.9ZM120.25,37.03c-.81,1.25-1.63,1.95-1.55,2.52.1.69.97,1.27,1.51,1.9.49-.53,1.37-1.06,1.37-1.6,0-.74-.65-1.48-1.33-2.82Zm86.03,4.7c-.92-1.12.72-3.18-1.67-3.23-.41,0-1.2,1.35-1.22,2.09-.06,1.8,1.25,1.51,2.89,1.14Zm-.87,84.44q.9-3.81-.67-4.48c-1.55,2.07-1.42,3.24.67,4.48Zm-82.7,244c-.78,1.26-1.53,1.99-1.6,2.78-.04.46.99,1.02,1.54,1.54.55-.72,1.29-1.39,1.57-2.2.12-.36-.71-1.03-1.51-2.11ZM36.93,204.34c-.73,1.29-1.31,2.08-1.6,2.97-.1.31.54.86.84,1.3.78-.75,1.61-1.46,2.26-2.31.09-.12-.69-.92-1.51-1.96ZM453.35,40.54c.62.72,1.01,1.18,1.41,1.64.64-.87,1.34-1.72,1.85-2.66.07-.13-.85-.78-1.31-1.19-.6.68-1.19,1.35-1.95,2.22ZM38.66,288.93c-.14-.21-.28-.42-.42-.63-.8.3-2.01.37-2.33.93-.67,1.18-.28,2.37,1.41,3.08.47-1.19.91-2.29,1.34-3.38Zm-5.45-250.53c.75.96,1.16,1.49,1.57,2.01.53-.72,1.21-1.38,1.5-2.18.12-.34-.6-.97-.93-1.47-.62.47-1.24.95-2.14,1.64Zm88.31,87.41c.31-.08.62-.17.93-.25-.19-1.2-.25-2.44-.66-3.55-.09-.25-1.42-.04-2.58-.04.94,1.57,1.62,2.7,2.3,3.84Zm252.07-85.41c-.8-.69-1.27-1.38-1.83-1.47-.36-.06-1.31.91-1.22,1.18.27.85.9,1.58,1.39,2.35.44-.55.89-1.1,1.66-2.06Zm82.1,164.99c-.65-.21-1.33-.43-2.01-.65-.13.88-.43,1.77-.33,2.62.05.49.73.91,1.34,1.6.39-1.39.63-2.24,1-3.57Zm-247.92,82.99c-.11-.3-.23-.61-.34-.91-.86.2-2.02.14-2.49.68-.46.53-.22,1.67-.28,2.54.25.08.5.16.75.24l2.37-2.55Z"/>
  <path d="m95.32,250.78c-.47.23-.96.34-1.27.63-2.12,1.99-4.17,4.07-6.31,6.03-2.16,1.98-4.3,4.01-6.67,5.69-.63.45-2.13-.22-3.19-.53-.53-.16-.95-.67-1.54-1.11.65-1.34,1.08-2.7,3.17-3.05,1.09-.18,1.93-1.84,3.14-3.09-.2-1.17.13-2.06,2.04-2.73,1.87-.65,4.02-1.73,4.6-4.24.09-.41,1.15-.82,1.76-.83.63-.01,1.27.47,1.91.73.15-.18.29-.36.44-.54-.72-.63-1.45-1.26-1.95-1.71.43-1.22.85-2.39,1.43-4.04-2.2.5-3.67.82-5.25,1.18q-.15-4.93,3.22-4.72c-.09-1.24-.11-2.45-.28-3.63-.13-.92-.51-1.8-.66-2.72-.6-3.64.36-4.78,4.83-5.25.42,1.72.74,3.56,1.32,5.32.61,1.87,1.8,3.62,2.11,5.52.31,1.89,1.01,2.43,2.4,1.57,1.04-.77,2.02-1.65,3.12-2.31,3.3-1.97,6.83-3.58,9.27-6.77.62-.81,1.71-1.25,2.59-1.87,2.94-2.08,5.9-4.13,8.79-6.27.38-.28.51-1.01.58-1.55.2-1.61,1.76-2.55,3.05-2.1,1.72-1.99,3.43-3.82,4.96-5.78.75-.95.91-2.56,1.81-3.15,3.08-1.99,5.84-4.31,8.44-6.87.11-.1.26-.16.09-.44.49-.87.79-1.94,1.49-2.58,1.85-1.69,3.03-4.21,5.77-4.84.18-.04.36-.31.43-.52,1.39-3.91,5.03-5.81,7.63-8.65,1.53-1.67,2.87-3.5,4.27-5.28.44-.56.8-1.19,1.19-1.79.53.5,1.07,1,1.74,1.63.54-3.43,3.27-5.21,5.54-7.43,2.89-2.83,5.88-5.69,8.11-9.01,1.25-1.86,2.78-2.89,4.43-4.04.31-.21.61-.47.85-.76,1.52-1.89,2.99-3.82,4.54-5.69,2.14-2.59,4.29-5.18,6.54-7.69.62-.69,1.6-1.06,2.93-1.9.53-3.6,4.35-5.72,7.11-8.89.69.58,1.68,1.13,2.22,1.97.33.51.28,1.71-.11,2.18-1.56,1.9-3.37,3.58-4.97,5.45-.61.71-.89,1.68-1.71,2.42.12-.5.24-.99.41-1.72-.43.22-.68.26-.78.41-1.56,2.18-3,4.46-4.7,6.52-.7.85-2.05,1.12-2.91,1.88-.79.7-1.75,1.62-1.9,2.56-.53,3.16-3.41,4.07-5.23,5.97-.59.61-1.34,1.06-2.5,1.96h1.83c-.14.23-.21.46-.37.58-1.7,1.32-3.44,2.6-5.12,3.96-.46.37-1,.95-1.05,1.46-.16,1.94-1.14,2.61-2.8,2.22-2.12,4.56-4.85,8.25-8.93,9.46-1.62,2.2-2.8,3.8-4.11,5.59-.42-.35-.8-.66-1.62-1.34-.13.3-.34.65-.41,1.03-.91,4.53-4.62,6.95-7.48,10.02-1.73,1.85-3.31,3.84-4.97,5.76-3.45,3.99-6.9,7.99-10.41,11.93-.37.41-1.16.44-1.8.67-.68,3.4-4.15,4.26-6.34,6.36-.09.08-.42-.02-.44.05-1.14,2.85-4.5,3.27-6.1,5.32-2.45,3.15-5.29,5.57-8.63,7.67-3.16,1.98-6.01,4.47-8.92,6.83-1.25,1.02-.59,2.18.54,2.56,7.51,2.53,15.05,4.99,22.62,7.35,6.89,2.14,14.12,2.96,20.79,6.07,3.24,1.52,7.03,1.86,10.57,2.75,3.82.96,7.66,1.86,11.44,2.95,4.51,1.29,9.13,2.38,13.42,4.23,5.79,2.5,11.86,3.41,17.97,4.43,4.43.74,8.76,2.06,13.19,2.87,6.3,1.16,12.65,2.09,18.97,3.11,1.62.26,1.8-.96,1.51-1.89-.86-2.72-1.82-5.43-3.02-8.02-.68-1.45-1.92-2.64-2.87-3.97-.54-.76-1.09-1.53-1.48-2.37-.94-2.06-.61-4.47.57-4.87,1.89-.65,5.2.76,5.87,2.51.19.51.2,1.15.53,1.53.65.76,1.46,1.39,2.21,2.07.54-.62,1.52-1.24,1.52-1.86,0-.7-.9-1.38-1.4-2.07l-.88-.16c.96-1.25,2.03-2.43,2.84-3.78.36-.6.32-1.56.19-2.3-.29-1.59-.66-3.18-1.18-4.71-.27-.8-1.25-1.43-1.34-2.21-.43-3.67-.66-7.35-.78-11.15.92,1.06.41,3.71,3.6,2.49-.61-1.78-1.35-3.61-1.85-5.5-.31-1.17-.3-2.43-.33-3.65-.05-1.82-.01-3.65-.01-5.7-.99.27-1.63.45-2.94.81.31-1.03.33-2.18.77-2.37,2.43-1.06,1.73-2.46,1.09-4.37-.63-1.87-.46-4.01-.65-6.04.21-.07.42-.14.63-.21-.55-.29-1.1-.58-1.88-1,1.3-1.17,2.43-2.19,3.55-3.2-.07-.2-.14-.4-.21-.59-.94.13-1.89.26-2.97.41-.15-.61-.31-1.24-.47-1.88-.18-.02-.36-.04-.54-.06-.17.85-.35,1.69-.52,2.54-.18.01-.36.03-.55.04-.12-4.65-.16-9.31-.41-13.95-.15-2.87-.61-5.72-.94-8.57-.06-.48-.14-.96.24-1.59.51,1.05,1.01,2.1,1.57,3.27,1.49-4.25,2.46-8.31-.15-12.73-.14,1.55-.25,2.78-.37,4-.23,0-.47,0-.7,0-.11-1.88-.21-3.76-.32-5.68,1.59-.28,3.01-.53,4.88-.85-.8-.57-1.53-1.47-2.02-1.36-2.74.62-2.79-1.25-2.88-2.97-.07-1.26.14-2.53.23-3.79.27-.01.54-.02.8-.03.08.8.12,1.6.25,2.39.09.55.29,1.08.44,1.61.58-.36,1.63-.68,1.66-1.07.19-2.44.12-4.9.19-7.36.05-1.96.17-3.92.26-5.89.05-1.15.12-2.3.18-3.45-.22-.05-.45-.1-.67-.15-.28.89-.56,1.78-.84,2.66l-.68-.94c.16,3.33.31,6.66.47,9.99-.19.08-.37.16-.56.24-.46-1.15-1.16-2.26-1.31-3.45-.18-1.44.35-2.97.15-4.41-.37-2.65-.99-5.28-1.62-7.89-.26-1.06-.82-2.05-1.36-3.36-.51.47-1.15,1.07-2.03,1.89-1.03-.92-2.12-1.99-3.33-2.91-.46-.35-1.18-.41-1.79-.51-1.49-.25-3.35.3-3.8-1.9-2.52.17-4.39-1.17-5.1-3.69-1.77.57-3.51,1.39-5.32,1.6-.74.09-1.94-.96-2.38-1.79-.55-1.04-.46-2.39-.76-3.58-.65-2.58-.4-3.18,2.21-3.16,1.99.01,2.87-.81,4.19-2.3,3.04-3.44,5.52-7.17,7.75-11.12.06-.11.27-.13.76-.34.31.81.61,1.61.91,2.4,1.61-1.2,1.64-1.47.42-3.42.83-1.1,1.66-2.19,2.68-3.54.36.71.6,1.17.95,1.86.74-.8,1.33-1.45,1.89-2.05-.87-.54-1.49-.92-2.12-1.31.81-.36,1.62-.72,2.45-1.08.39-2.35.94-4.95,1.2-7.58.17-1.68.5-2.96,1.53-4.52,1.54-2.31,2.89-1.27,4.32-.76,3.4,1.21,6.74,2.62,10.09,3.98,1.44.59,2.88,1.15,3.2,3.04.11.62.87,1.13,1.33,1.7.46-.48.92-.97,1.49-1.56.32.78.65,1.61,1,2.45,2.17-1.64,3.88-1.38,5.77.63.46.49,1.39.51,2.03.87.85.48,1.58,1.2,2.46,1.62,2.82,1.33,5.66,2.61,8.53,3.81.76.32,1.95-.01,2.46.47,2.03,1.93,4.54,1.86,7.02,2.21.61.08,1.32,1.12,1.56,1.86.65,1.98,1.57,3,3.89,2.39,2.03-.54,3.85.3,4.54,2.31.62,1.8,1.74,2.23,3.36,2.15,2.24-.11,4.06.33,5.67,2.28.87,1.06,2.93,1.14,4.45,1.66.12-.18.25-.37.37-.55.32,1.34.59,2.69,1,4,.17.53.55,1.24.99,1.37.36.11,1.03-.43,1.41-.83.8-.84,1.43-2.1,2.84-1.12,1.19.84,2.59,1.67,1.62,3.58-.25.49-.21,1.13-.41,2.29,1.29-1.04,2.1-1.7,2.4-1.94,2.28,1.41,4.27,2.8,6.41,3.92,1.91.99,3.97,1.68,5.96,2.51.14.06.33.2.33.31.28,4.07,3.77,2.29,5.78,3.17.84.37,2.02.46,2.5,1.09,1.35,1.75,4.89.8,4.81,4.18h3.56c-.36,2.23.86,1.88,2.48,2.18,2.88.52,5.6,2,8.36,3.13,1.64.67,3.21,1.5,4.86,2.15,2.41.94,4.62,1.99,5.99,4.45.49.88,1.77,1.42,2.81,1.82.44.17,1.18-.44,1.87-.74,1.64.87,4.17,2.13,6.61,3.53,1.52.87,3.54,1.4,3.32,3.98,4.22-2.13,6.5,1.28,9.38,2.89,1.12.62,2.31,1.16,3.28,1.97.69.57,1.11,1.5,1.57,2.31.49.85.89,1.75,1.32,2.63.23-.07.46-.14.68-.2.15-.86.3-1.72.54-3.12,6.12,3.83,12.06,7.55,18.37,11.5.08-1.03.23-1.89.2-2.74-.15-3.88-.27-7.76-.55-11.63-.14-1.88.65-2.82,2.37-3.08,2.16-.33,4.09.77,4.22,2.57.34,4.65.61,9.31.74,13.98.04,1.44.38,2.29,1.76,2.88,4.8,2.04,9.6,4.1,14.32,6.32,2.97,1.4,4.56,2.5,3.09,5.01-.52-.43-.99-.83-1.37-1.15-1.35.48-2.68.96-4.01,1.43-.09-.16-.18-.32-.28-.48.28-.36.56-.71.83-1.07-.14-.12-.23-.22-.25-.21-1.8.94-3.32-.31-4.9-.73-2.05-.54-4.01-1.43-6.07-1.96-.69-.18-1.8.03-2.3.51-2.42,2.32-1.55,5.35-1.49,8.19.02.93.37,2.01,0,2.74-.44.87-1.43,1.91-2.27,1.99-.97.1-1.95-.47-1.92-2.2.03-1.82-.93-3.65-1.62-6.04-.94,1.17-1.35,1.68-1.77,2.2-.46-.5-.91-.98-1.69-1.81-.07,1.1-.02,1.77-.17,2.39-.12.48-.54,1.31-.74,1.28-2.81-.37-3.86,2.28-5.81,3.35-.94.51-1.5.99-2.64.14-1.25-.93-2.43-.49-2.43,1.36-.01,2.39-1.64,2.83-3.75,3.19.08-.95.14-1.68.25-3.02-.77.56-1.59.85-1.68,1.29-.44,2.33-2.08,3.15-3.85,4.49-2.64,2-6.35,1.79-8.43,4.88-1.08,1.6-3.35,2.42-5.1,3.56-.3.19-.81.41-1.05.29-2.69-1.4-4.57-.24-6.35,1.75-.37.41-1.25.37-1.83.76,2.88,1.69,4.01-2.35,6.46-2.2-.12,2.58-5.73,6.13-8.56,5.48-1.86,3.61-5.16,5.33-8.85,6.82-.32-.79-.56-1.39-.96-2.35-1.95,1.94-3.7,3.68-5.61,5.58-1.53-.4-3.42-1.09-4.61,1.49-.32.68-1.63.89-2.48,1.33-.43.22-.85.46-1.28.7-.98.56-1.97,1.1-2.92,1.7-2.16,1.36-4.27,2.8-6.47,4.1-.53.31-1.31.19-2.07-.05-1.53,1.45-2.97,3.23-5.68,1.7-.6,1.58-.97,3.37-3.38,2.29.38-.5.74-.96,1.09-1.42-.1-.12-.19-.25-.29-.37-.49.27-1.32.45-1.43.83-.9,3.32-3.8,3.39-6.35,4.15-1.14.34-2.63.81-3.15,1.7-1.84,3.13-4.54,3.21-7.59,2.6.09.23.18.46.28.69-.89.42-1.8.8-2.66,1.28-.51.28-.96.7-1.4,1.09-1.02.9-1.96,2.11-3.45.66-.16-.15-.65-.18-.82-.04-1.24.97-2.53,1.91-3.62,3.04-1.51,1.57-3.45.88-5.19,1.21-.41.08-.89-.18-.84-.17-2.86,1.88-4.49,4.59-8.36,4.32-2.14-.15-4.42,1.6-6.64,2.49-.06.02-.11.19-.12.18-2.71-1.3-3.38,1.99-5.26,2.33-1.67.3-3.43.06-5.3.06v1.81c-.89-.67-1.53-1.14-2.54-1.9.2.86.31,1.29.42,1.79-1.57.54-3.75-.41-4.35,1.99-.04.14-.61.32-.83.23-2.64-1.07-4.25,1.4-6.43,1.92-.39.09-.83,1.32-.72,1.93.4,2.29.95,4.56,1.56,6.81.59,2.18.68,4.26-.4,6.28-2.63-.13-6.11-3.55-5.96-6.33.16-2.92-1.86-4.53-3.14-6.6-.44-.71-1.14-1.26-1.35-1.49-1.49.22-2.71.6-3.89.52-2.64-.19-5.29-.47-7.88-.99-1.43-.29-2.69-1.34-4.11-1.68-2.21-.53-4.5-.74-6.65-1.07v-3.82c-.3-.03-.59-.06-.89-.1-.19,1.16-.38,2.32-.52,3.22-1.06.18-1.94.48-2.81.45-1.08-.04-2.26-.15-3.21-.61-1.92-.93-3.72-2.12-5.55-3.19-1.2,3.34-3.4-.06-4.64,1.34.13-.95.23-1.71.34-2.47-.8-.09-1.61-.33-2.38-.25-3.24.34-6.39.5-8.71-2.46-.25-.32-.92-.31-1.39-.45-.09.5-.18,1.01-.31,1.73-2.9-1.04-6.47-.76-7.89-3.88h-6.62l-.53-.68c.56-.3,1.12-.59,2.02-1.07-1.41-.28-2.5-.69-3.6-.68-2.27,0-4.5.3-6.6-1.11-.65-.44-1.83-.07-2.8-.07.4-.64-2.19-2.28.68-2.81.03,0,.07-.55-.03-.61-.27-.16-.73-.37-.9-.25-.75.54-1.4,1.2-2.13,1.78-.65.52-1.35.99-2.02,1.48-.3-.71-.6-1.42-1.03-2.43-3.45,1.65-6.1.04-8.18-3.29-1.53,2.12-2.64,1.48-3.96.08-.64-.68-1.82-.91-2.79-1.23-2.52-.83-5.07-1.61-7.61-2.4-.64-.2-1.27-.39-1.95-.6-.07-.83-.17-1.86-.26-2.9-.51.07-1.34-.02-1.49.25-.51.93-.77,1.99-1.02,2.7-.9.28-2.02.43-2.93.96-1.48.86-2.76.33-2.81-1.58-.05-1.74-.67-2.19-2.31-1.9-.67.12-1.44-.27-2.49-.51-1.25,1.16-4.24.53-5.03-1.6-.47-1.25-1.12-1.5-2.02-.59-.95.95-1.78,2.17-1.89-.41,0-.08-.04-.22-.04-.22-2.92.38-2.57-2.12-3.38-3.67-.16-.31-1.25-.34-1.79-.15-.3.11-.56,1-.44,1.44.6,2.33,1.31,4.64,2.01,6.95.32,1.04.78,2.04,1.02,3.1.32,1.39.42,2.83.74,4.23.45,1.99,1.08,3.95,1.51,5.95.24,1.09.23,2.23.34,3.34-.96.08-1.91.16-2.87.23-.15.01-.33.01-.46-.05-1.04-.46-2.06-.94-3.09-1.41.94-.57,1.87-1.13,3.03-1.84-.43-.26-1.08-.63-1.71-1.03-.75-.48-1.89-.83-2.16-1.51-.91-2.27-1.7-4.63-2.17-7.03-.37-1.91-.05-3.95-.36-5.87-.14-.85-1.09-1.57-1.72-2.42Zm150.47,29.51c1.96-.93,3.38-1.52,4.73-2.25,3.97-2.15,8.04-3.78,12.7-3.09.38.06.83-.3,1.24-.49,1.3-.64,2.57-1.34,3.9-1.92,1.34-.59,2.77-.98,4.09-1.59,2.45-1.14,4.78-2.56,7.29-3.52,2.79-1.07,5.78-1.62,8.58-2.67,4.73-1.77,9.47-3.58,14.04-5.71,4.21-1.96,8.21-4.36,12.29-6.59,1.09-.59,2.07-1.57,3.22-1.84,4.57-1.06,8.77-3.03,12.74-5.35,4.05-2.36,8.74-3.42,12.47-6.37.9-.71,1.77-1.93,3.25-.87.15.11.71-.22,1.01-.44,1.44-1.04,2.76-2.32,4.32-3.14,3.49-1.83,7.09-3.44,9.97-4.81,1.54-1.17,2.51-1.93,3.5-2.66,4.36-3.21,8.58-6.64,13.13-9.56,4.54-2.92,9.29-5.58,14.17-7.89,7.09-3.35,13.37-7.92,19.74-12.36,1.35-.94,3.13-3.66,2.72-4.31-1.24-1.97-3.3-3.57-5.35-4.81-1.14-.68-2.89-.34-4.36-.46.16-.21.32-.42.48-.63-.53-1.01-1.31-1.97-1.52-3.04-.23-1.16.08-2.41.17-3.73-.61-.29-1.4-.66-2.54-1.19v5.72c-.97-1.11-1.5-2.01-2.28-2.52-.97-.63-2.2-.84-3.24-1.38-1.35-.7-2.63-2.24-3.92-2.22-4.35.06-5.62-5.36-9.89-5.22-.23,0-.49-.72-.74-1.11-.63.18-1.19.34-1.97.56-.67-3.06-2.37-4.37-5.43-3.31-.24.08-.61-.1-.87-.24-2.86-1.54-5.18-4.05-8.54-4.71-.51-.1-1.01-.34-1.46-.61-2.09-1.27-4.53-2.14-5.5-4.32-1.08-.48-2-.86-2.89-1.28-.41-.19-.74-.57-1.16-.72-2.25-.81-4.56-1.47-6.76-2.39-1.91-.8-3.66-1.95-5.54-2.83-2.28-1.08-4.63-2.03-6.93-3.06-.19-.09-.3-.35-.47-.51-1.81-1.66-3.67-3.03-6.39-2.8-.73.06-1.56-.92-2.31-1.47-.7-.52-1.36-1.1-2.03-1.67-.17-.14-.3-.32-.52-.56.32-.57.64-1.12,1.12-1.97-.87.26-1.41.6-1.88.53-1.79-.25-3.65-.39-5.31-1.03-1.37-.53-2.5-1.7-3.73-2.6-.7-.51-1.39-1.04-2.05-1.59-.76-.64-1.74-1.19-2.19-2.01-1.3-2.36-2.41-2.65-3.88-1.25-1.63-.84-3.06-1.53-4.45-2.3-.92-.51-1.78-1.11-2.76-1.73-.57-.06-1.43-.16-2.29-.26.02-.2.05-.4.07-.6.65-.43,1.29-.86,1.94-1.28-.07-.25-.14-.5-.21-.75-2.06.18-4.23.02-6.16.62-2.79.88-4.64.03-5-2.91-.11-.86-.19-1.72-.28-2.58-.2-.02-.4-.04-.61-.06-.3.68-.6,1.37-.9,2.05-.15-.01-.29-.03-.44-.04-.11-1.28-.22-2.57-.39-4.64-1.22,1.47-2.05,2.48-2.94,3.55-7.91,1.2-12.69,8.37-19.75,11.48-.25-.47-.44-.83-.9-1.69-1.91,1.88-3.46,3.73-5.33,5.15-2.87,2.19-5.97,4.07-8.95,6.11-1.07.73-1.96,1.78-3.1,2.32-2.18,1.03-3.11,2.78-3.23,4.99-.14,2.55-.13,5.12-.1,7.68.11,9.71.2,19.43.4,29.14.05,2.31.51,4.63-2.87,5.75,3.5.65,3.11,2.85,3.2,5.12.21,5.51.65,11.02,1.11,16.52.42,5.05.97,10.09,1.46,15.13.25,2.6.47,5.21.72,7.81.43,4.31,1.86,8.58.38,12.95-.18.55-.06,1.25.07,1.84.35,1.63,1.61,2.94.17,4.99-.78,1.11.38,3.46.31,5.24-.12,3.38-.9,6.79-.64,10.13.21,2.81,1.5,5.55,2.25,8.09Zm-7.07-180.79c-1.18,1.94-2.37,3.38-2.98,5.04-.48,1.29-.56,2.9-.29,4.27.76,3.8,2.1,7.51,2.65,11.34.78,5.38,1.03,10.83,1.56,16.24.05.55.42,1.07.64,1.6.45-.23.95-.4,1.35-.7.99-.74,1.88-1.65,2.92-2.3,4.08-2.56,8.25-4.97,12.29-7.59,2.16-1.4,4.05-3.19,6.2-4.61,1.17-.77,2.61-1.14,3.7-1.59.61-.59,1.08-1.46,1.64-1.53,2.28-.27,1.89-2.2,1.93-3.41.03-.73-1.2-1.77-2.09-2.23-2.17-1.11-5.29-.2-6.63-3.18-.16-.36-.9-.45-1.04-.52-.91.73-1.78,1.83-2.19,1.68-.88-.33-1.66-1.2-2.21-2.04-.53-.81-.47-2.09-2.04-1.54-.22.08-.63-.49-.98-.69-.73-.4-1.54-1.15-2.23-1.06-1.87.23-3.03-.39-3.49-2.21-.32.18-.45.25-.58.33-.78.53-1.56,1.06-2.34,1.59-.42-.67-.83-1.34-1.27-2-.46-.69-.94-1.37-1.27-1.85-.88.87-1.43,1.4-1.98,1.94-.38-.67-.9-1.3-1.09-2.02-.22-.83-.13-1.74-.2-2.93Zm-1.31,40.8c.25-.11.5-.23.75-.34-.24-1.13-.12-2.87-.79-3.28-2.11-1.28-2.37-3.16-2.53-5.22-.05-.61.12-1.39-.19-1.79-2.67-3.35-2.14-7.49-2.99-11.3-.59-2.63-1.5-5.18-2.27-7.77-1.18.71-1.66,1.31-2.08,1.95-1.3,2-2.49,4.07-3.89,5.99-.76,1.04-1.46,2.49-3.3,1.93-.16-.05-.67.81-.89,1.3-.86,1.92-1.39,4.07-2.6,5.73-1.04,1.44-.63,2.18.48,2.79,2.51,1.39,5.1,2.62,7.68,3.89,4.21,2.06,8.43,4.09,12.64,6.13Zm-3.22-20.57c-.22.09-.45.18-.67.27.32.59.71,1.16.94,1.79.18.49.33,1.48.22,1.52-1.69.62-1.56,2.24-1.08,3.13.4.74,1.92.86,3.05,1.3.69-3.44.14-6.08-2.46-8.01Zm2.58,82.23c.3-.04.6-.09.9-.13-.16-1.14-.32-2.28-.48-3.42-.06-.4-.08-.81-.17-1.2-.13-.56-.3-1.11-.46-1.66-.54.38-1.3.65-1.59,1.17-.67,1.22.48,4.29,1.8,5.24Zm151.39-28.48c-.64-3.53-2.28-4.72-5-3.93,1.81,1.42,3.4,2.68,5,3.93Zm-286.22,86.76c-.45-1.69-.8-2.98-1.15-4.27-.19,0-.38,0-.57-.01-.37,1.48-.75,2.96-1.21,4.8,1.27-.23,2.08-.37,2.93-.52Zm43.07-.36c.23-.28.45-.57.68-.85-.83-.75-1.65-1.51-2.48-2.26-.26.41-.8,1.14-.74,1.19.8.7,1.68,1.3,2.54,1.92Zm89.35-147.21c-.23-.85-.42-1.58-.82-3.07-1.04,1.53-1.64,2.43-2.25,3.33l.52.44c.78-.21,1.55-.42,2.56-.7Zm6.91,129.51c-.76,1.31-1.33,2.27-1.89,3.23l.93.54c.5-.94,1-1.89,1.48-2.84.02-.04-.07-.12-.53-.94Z"/>
  <path d="m456.68,288.76c-1.01,1.02-1.65,1.66-2.28,2.3l-1.86-2.21c.74-.62,1.42-1.38,2.26-1.78.23-.11.96.85,1.88,1.69Z"/>
  <path d="m39.82,376.37c-1.23-.38-2.37-.45-3.03-1.04-.48-.43-.6-1.63-.38-2.35.16-.54,1.09-.85,1.68-1.26.28.45.64.87.82,1.36.3.82.48,1.69.91,3.29Z"/>
  <path d="m457.15,123.77c-.84.97-1.29,1.98-1.89,2.09-1.26.22-2.18-.65-1.88-1.95.19-.8,1.03-1.44,1.57-2.16.63.58,1.26,1.16,2.2,2.03Z"/>
  <path d="m123.91,207.94c-.88.59-1.78,1.34-1.88,1.25-.74-.73-1.55-1.54-1.86-2.48-.11-.34,1.11-1.1,1.72-1.68.59.86,1.18,1.71,2.02,2.91Z"/>
  <path d="m373.8,289.07c-.91.86-1.53,1.88-2.04,1.83-.64-.07-1.74-1.14-1.65-1.56.18-.86,1.04-1.58,1.62-2.35.58.58,1.15,1.15,2.08,2.09Z"/>
  <path d="m124.2,288.88c-.88,1.22-.59,3.54-3.02,3.16-.25-.04-.56-2.32-.11-3.19.3-.58,1.88-.51,2.89-.73.08.25.16.51.24.76Z"/>
  <path d="m208.23,371.73c-1.13,1.13-1.89,1.89-2.64,2.64-.46-.69-1.42-1.56-1.25-2.03.29-.83,1.22-1.5,2.01-2.03.16-.11.91.68,1.88,1.42Z"/>
  <path d="m291.27,371.39c-1.05,1.15-1.71,1.88-2.37,2.6-.45-.88-1.12-1.73-1.24-2.66-.05-.4.96-1.26,1.58-1.35.49-.07,1.1.72,2.03,1.41Z"/>
  <path d="m372.01,126.24c-2.25-.42-1.69-2.12-1.41-3.4.1-.45,1.28-.66,1.97-.99.23.55.73,1.14.64,1.63-.17.87-.69,1.67-1.19,2.76Z"/>
  <path d="m452.99,372.92c.57-1.55-.6-4.08,2.55-3.87.17,3.71-.06,5.06-2.55,3.87Z"/>
  <path d="m207.55,207.31c-.95.77-1.54,1.25-2.12,1.72-.48-.77-1.27-1.53-1.31-2.33-.03-.52,1.04-1.09,1.62-1.64.5.61.99,1.23,1.81,2.24Z"/>
  <path d="m369.72,371.37c.85-.83,1.38-1.35,1.91-1.87.6.78,1.36,1.5,1.69,2.38.1.26-1.1,1.45-1.55,1.37-.65-.12-1.16-1.01-2.05-1.87Z"/>
  <path d="m290.82,289.29c-.99,1.04-1.6,1.7-2.22,2.35-.38-.84-.95-1.67-1.05-2.54-.05-.48.7-1.05,1.09-1.59.61.5,1.21.99,2.18,1.78Z"/>
  <path d="m289.91,38.78c-.99,1.13.45,3.51-2.2,3.57-.25,0-.85-1.03-.74-1.43.35-1.29.24-3.42,2.93-2.13Z"/>
  <path d="m33.56,123.22c1.05-.86,1.68-1.38,2.31-1.9.46.69,1.27,1.38,1.26,2.07,0,.55-.93,1.39-1.58,1.54-.4.09-1.05-.86-1.99-1.71Z"/>
  <path d="m120.25,37.03c.68,1.34,1.33,2.08,1.33,2.82,0,.54-.88,1.07-1.37,1.6-.54-.63-1.4-1.2-1.51-1.9-.08-.57.74-1.27,1.55-2.52Z"/>
  <path d="m206.27,41.73c-1.64.37-2.95.66-2.89-1.14.02-.74.81-2.1,1.22-2.09,2.39.05.75,2.11,1.67,3.23Z"/>
  <path d="m205.4,126.17c-2.09-1.24-2.23-2.42-.67-4.48q1.57.67.67,4.48Z"/>
  <path d="m122.7,370.17c.8,1.08,1.63,1.75,1.51,2.11-.28.82-1.02,1.48-1.57,2.2-.55-.52-1.58-1.08-1.54-1.54.07-.79.82-1.51,1.6-2.78Z"/>
  <path d="m36.93,204.34c.81,1.04,1.6,1.84,1.51,1.96-.65.85-1.49,1.56-2.26,2.31-.3-.44-.94-.99-.84-1.3.28-.89.87-1.68,1.6-2.97Z"/>
  <path d="m453.35,40.54c.76-.86,1.36-1.54,1.95-2.22.46.41,1.37,1.07,1.31,1.19-.51.95-1.21,1.79-1.85,2.66-.39-.46-.79-.92-1.41-1.64Z"/>
  <path d="m38.66,288.93c-.43,1.09-.87,2.19-1.34,3.38-1.69-.71-2.08-1.9-1.41-3.08.32-.57,1.53-.64,2.33-.93.14.21.28.42.42.63Z"/>
  <path d="m33.21,38.4c.9-.69,1.52-1.16,2.14-1.64.34.5,1.05,1.14.93,1.47-.29.8-.98,1.46-1.5,2.18-.41-.53-.83-1.06-1.57-2.01Z"/>
  <path d="m121.51,125.82c-.68-1.14-1.36-2.27-2.3-3.84,1.16,0,2.49-.21,2.58.04.41,1.11.47,2.35.66,3.55-.31.08-.62.17-.93.25Z"/>
  <path d="m373.58,40.41c-.78.96-1.22,1.51-1.66,2.06-.49-.78-1.12-1.51-1.39-2.35-.08-.27.86-1.24,1.22-1.18.56.09,1.03.78,1.83,1.47Z"/>
  <path d="m455.68,205.4c-.37,1.33-.61,2.18-1,3.57-.6-.68-1.28-1.11-1.34-1.6-.09-.85.2-1.75.33-2.62.68.22,1.36.44,2.01.65Z"/>
  <path d="m207.77,288.39l-2.37,2.55c-.25-.08-.5-.16-.75-.24.06-.87-.18-2.02.28-2.54.47-.54,1.63-.48,2.49-.68.11.3.23.61.34.91Z"/>
  <path class="cls-1" d="m245.79,280.3c-.75-2.55-2.04-5.28-2.25-8.09-.25-3.34.52-6.74.64-10.13.07-1.78-1.1-4.13-.31-5.24,1.44-2.05.18-3.36-.17-4.99-.13-.6-.26-1.3-.07-1.84,1.47-4.38.04-8.65-.38-12.95-.26-2.6-.47-5.21-.72-7.81-.49-5.05-1.04-10.08-1.46-15.13-.45-5.5-.9-11.01-1.11-16.52-.08-2.27.3-4.48-3.2-5.12,3.38-1.11,2.92-3.44,2.87-5.75-.2-9.71-.3-19.43-.4-29.14-.03-2.56-.04-5.13.1-7.68.12-2.21,1.05-3.96,3.23-4.99,1.14-.54,2.04-1.59,3.1-2.32,2.98-2.05,6.08-3.93,8.95-6.11,1.87-1.43,3.41-3.27,5.33-5.15.46.86.65,1.22.9,1.69,7.06-3.12,11.85-10.28,19.75-11.48.89-1.07,1.72-2.08,2.94-3.55.17,2.07.28,3.35.39,4.64.15.01.29.03.44.04.3-.68.6-1.37.9-2.05.2.02.4.04.61.06.09.86.17,1.72.28,2.58.36,2.93,2.21,3.79,5,2.91,1.93-.61,4.1-.44,6.16-.62.07.25.14.5.21.75-.65.43-1.29.86-1.94,1.28-.02.2-.05.4-.07.6.86.1,1.72.2,2.29.26.98.62,1.84,1.22,2.76,1.73,1.39.77,2.83,1.47,4.45,2.3,1.47-1.41,2.59-1.12,3.88,1.25.45.82,1.43,1.37,2.19,2.01.66.56,1.35,1.08,2.05,1.59,1.23.9,2.36,2.07,3.73,2.6,1.66.64,3.52.79,5.31,1.03.48.07,1.01-.27,1.88-.53-.48.84-.79,1.39-1.12,1.97.22.24.35.41.52.56.67.56,1.33,1.15,2.03,1.67.75.55,1.59,1.53,2.31,1.47,2.72-.23,4.59,1.14,6.39,2.8.17.16.27.42.47.51,2.31,1.03,4.65,1.98,6.93,3.06,1.87.88,3.63,2.03,5.54,2.83,2.2.93,4.51,1.58,6.76,2.39.42.15.75.52,1.16.72.89.43,1.81.81,2.89,1.28.96,2.18,3.41,3.05,5.5,4.32.45.27.95.51,1.46.61,3.36.65,5.68,3.16,8.54,4.71.26.14.63.33.87.24,3.05-1.06,4.75.25,5.43,3.31.78-.22,1.35-.39,1.97-.56.25.39.5,1.11.74,1.11,4.26-.14,5.53,5.28,9.89,5.22,1.29-.02,2.57,1.52,3.92,2.22,1.04.54,2.27.75,3.24,1.38.78.51,1.31,1.41,2.28,2.52v-5.72c1.14.54,1.93.91,2.54,1.19-.08,1.32-.39,2.58-.17,3.73.21,1.07.99,2.03,1.52,3.04-.16.21-.32.42-.48.63,1.47.12,3.23-.22,4.36.46,2.05,1.23,4.11,2.84,5.35,4.81.41.64-1.36,3.37-2.72,4.31-6.37,4.43-12.66,9-19.74,12.36-4.88,2.31-9.63,4.98-14.17,7.89-4.55,2.92-8.77,6.35-13.13,9.56-.99.73-1.96,1.49-3.5,2.66-2.88,1.37-6.48,2.98-9.97,4.81-1.56.82-2.87,2.09-4.32,3.14-.3.22-.85.55-1.01.44-1.47-1.06-2.35.15-3.25.87-3.73,2.96-8.42,4.01-12.47,6.37-3.97,2.32-8.17,4.29-12.74,5.35-1.15.27-2.13,1.24-3.22,1.84-4.08,2.23-8.09,4.62-12.29,6.59-4.58,2.13-9.31,3.94-14.04,5.71-2.8,1.05-5.79,1.6-8.58,2.67-2.51.97-4.84,2.38-7.29,3.52-1.32.62-2.75,1.01-4.09,1.59-1.33.58-2.6,1.28-3.9,1.92-.4.2-.86.55-1.24.49-4.66-.69-8.73.93-12.7,3.09-1.34.73-2.77,1.32-4.73,2.25Zm56.33-65.3c1.16-.31,2.45-.43,3.51-.99,2.29-1.21,4.34-2.83,7.25-2.35.65.11,2.13-1.05,2.15-1.66.08-2.5-.15-5.03-.5-7.52-.18-1.28-.95-2.47-1.25-3.75-1.68-7.18-3.31-14.38-4.95-21.58-.78-3.45-1.85-4.14-5.33-3.18-1.64.45-3.19,1.27-4.84,1.67-4,.95-8.11,1.49-12.04,2.66-6.53,1.94-12.95,4.24-19.42,6.36-.49.16-1.07.08-1.6.12-1.65.13-2.84.99-2.42,2.67.46,1.84,1.58,3.5,2.16,5.32.63,1.96,1.66,4.18,1.24,5.97-.48,2.01-.68,3.43.05,5.52,1.5,4.25,2.22,8.77,3.15,13.2.11.54-.53,1.21-.64,1.84-.12.68-.18,1.94.02,2.01,2.13.66,3.94,2.48,6.58,1.31,3.69-1.64,7.53-3.17,11.62-3.26,4.33-.1,8.49-.7,12.43-2.49.98-.45,1.83-1.19,2.84-1.86Zm25.2.67c-.11,1.02-.56,2.54-.35,3.96.8,5.58,1.78,11.14,2.79,16.69.17.96.63,1.97,1.24,2.72.51.63,1.43,1.24,2.19,1.26.44.02,1.31-1.14,1.31-1.77-.03-3.24-.03-6.52-.5-9.72-.83-5.68-1.93-11.31-3.04-16.95-.3-1.52.36-2.02,1.56-2.6,3.84-1.86,8.52-1.76,11.76-5.05.08-.08.95.62,1.94,1.28.48-.37,1.48-1.14,2.63-2.02q2.03.78,3.64-1.73c.19.13.48.22.54.39,2.29,6.04,4.56,12.08,6.82,18.13.08.21-.04.49.05.69.58,1.42,1.08,2.9,1.84,4.22.3.53,1.41,1.16,1.75.98.72-.38,1.62-1.24,1.65-1.93.07-1.52-.29-3.08-.61-4.59-.24-1.13-.77-2.2-1.06-3.33-1.49-5.87-2.92-11.75-4.42-17.62-.53-2.08-1.98-3.07-4.05-2.49-3.05.86-6.03,1.96-9.04,2.96-2.56.85-5.08,1.85-7.69,2.52-3.53.9-7.12,1.59-10.7,2.3-1.85.37-2.44,1.5-2.22,3.21.24,1.92.49,3.85.85,5.75.15.77.61,1.49,1.13,2.72Zm23.35.01c-1.01-1.1-1.57-2.24-2.16-2.26-1.63-.04-2.24,1.26-2.08,2.72.11.98-.65,2.88,1.15,2.62,1.03-.15,1.85-1.79,3.09-3.09Zm22.23-9.68c-.53-.5-.96-.91-1.4-1.32-.41.68-1.18,1.38-1.13,2.02.06.78.8,1.52,1.25,2.27.39-.91.78-1.83,1.27-2.98Z"/>
  <path class="cls-1" d="m238.72,99.51c.06,1.19-.02,2.1.2,2.93.19.72.71,1.35,1.09,2.02.55-.54,1.09-1.07,1.98-1.94.33.49.81,1.16,1.27,1.85.44.66.85,1.33,1.27,2,.78-.53,1.56-1.06,2.34-1.59.12-.08.26-.15.58-.33.47,1.82,1.62,2.44,3.49,2.21.69-.09,1.5.66,2.23,1.06.36.2.77.76.98.69,1.57-.55,1.51.73,2.04,1.54.54.83,1.33,1.71,2.21,2.04.41.15,1.29-.95,2.19-1.68.14.07.88.16,1.04.52,1.35,2.98,4.46,2.07,6.63,3.18.89.46,2.11,1.5,2.09,2.23-.04,1.22.35,3.14-1.93,3.41-.56.07-1.03.94-1.64,1.53-1.09.45-2.53.82-3.7,1.59-2.14,1.42-4.04,3.21-6.2,4.61-4.04,2.61-8.21,5.03-12.29,7.59-1.04.66-1.93,1.56-2.92,2.3-.4.3-.9.47-1.35.7-.22-.53-.59-1.05-.64-1.6-.52-5.41-.78-10.86-1.56-16.24-.55-3.83-1.89-7.53-2.65-11.34-.27-1.36-.19-2.98.29-4.27.62-1.66,1.8-3.1,2.98-5.04Z"/>
  <path class="cls-1" d="m237.4,140.32c-4.21-2.04-8.43-4.07-12.64-6.13-2.58-1.26-5.17-2.5-7.68-3.89-1.11-.61-1.52-1.36-.48-2.79,1.2-1.66,1.73-3.81,2.6-5.73.22-.49.74-1.35.89-1.3,1.85.56,2.55-.89,3.3-1.93,1.4-1.92,2.59-3.99,3.89-5.99.42-.64.9-1.23,2.08-1.95.77,2.59,1.68,5.14,2.27,7.77.85,3.8.32,7.95,2.99,11.3.32.4.15,1.18.19,1.79.16,2.06.42,3.94,2.53,5.22.68.41.55,2.15.79,3.28-.25.11-.5.23-.75.34Z"/>
  <path class="cls-1" d="m234.18,119.74c2.6,1.93,3.15,4.57,2.46,8.01-1.12-.43-2.65-.56-3.05-1.3-.48-.89-.61-2.51,1.08-3.13.11-.04-.04-1.03-.22-1.52-.23-.63-.62-1.2-.94-1.79.22-.09.45-.18.67-.27Z"/>
  <path class="cls-1" d="m236.76,201.98c-1.33-.95-2.48-4.02-1.8-5.24.29-.52,1.05-.79,1.59-1.17.16.55.33,1.1.46,1.66.09.39.11.8.17,1.2.16,1.14.32,2.28.48,3.42-.3.04-.6.09-.9.13Z"/>
  <path class="cls-1" d="m388.15,173.5c-1.6-1.26-3.2-2.51-5-3.93,2.72-.78,4.36.4,5,3.93Z"/>
  <path class="cls-1" d="m101.93,260.26c-.85.15-1.66.29-2.93.52.46-1.84.84-3.32,1.21-4.8.19,0,.38,0,.57.01.35,1.29.69,2.58,1.15,4.27Z"/>
  <path class="cls-1" d="m144.99,259.89c-.86-.63-1.74-1.23-2.54-1.92-.05-.05.48-.78.74-1.19.83.75,1.65,1.51,2.48,2.26-.23.28-.45.57-.68.85Z"/>
  <path class="cls-1" d="m234.34,112.68c-1,.27-1.78.49-2.56.7l-.52-.44c.61-.9,1.22-1.8,2.25-3.33.4,1.49.6,2.22.82,3.07Z"/>
  <path class="cls-1" d="m241.24,242.19c.46.81.54.9.53.94-.49.95-.99,1.89-1.48,2.84-.31-.18-.62-.36-.93-.54.56-.96,1.12-1.92,1.89-3.23Z"/>
  <path d="m302.12,215c-1.01.67-1.85,1.41-2.84,1.86-3.94,1.8-8.1,2.39-12.43,2.49-4.09.09-7.92,1.62-11.62,3.26-2.64,1.17-4.45-.65-6.58-1.31-.2-.06-.14-1.33-.02-2.01.11-.64.75-1.3.64-1.84-.93-4.43-1.66-8.96-3.15-13.2-.74-2.1-.53-3.52-.05-5.52.43-1.8-.61-4.01-1.24-5.97-.58-1.82-1.7-3.48-2.16-5.32-.42-1.68.77-2.54,2.42-2.67.54-.04,1.11.04,1.6-.12,6.47-2.12,12.89-4.42,19.42-6.36,3.93-1.17,8.04-1.71,12.04-2.66,1.65-.39,3.2-1.21,4.84-1.67,3.48-.96,4.55-.27,5.33,3.18,1.63,7.2,3.26,14.39,4.95,21.58.3,1.28,1.07,2.47,1.25,3.75.34,2.49.57,5.02.5,7.52-.02.61-1.5,1.77-2.15,1.66-2.91-.47-4.96,1.15-7.25,2.35-1.06.56-2.35.68-3.51.99Zm2.16-27.75c-.35-1.57-.85-3.13-1.02-4.72-.23-2.1-1.43-2.35-3.1-1.96-1.73.41-3.48.79-5.18,1.34-2.81.91-5.59,1.9-8.34,2.98-.56.22-1.3.93-1.31,1.43-.03,2,.08,4.02.41,5.99.07.42,1.44,1.11,1.88.91,2.67-1.16,5.13-2.93,7.89-3.76,2.9-.87,5.51-3.08,8.84-2.27,1.03,1.27,1.18,2.74-.05,3.74-1.5,1.21-3.25,2.19-5.02,2.98-3.51,1.55-7.12,2.87-10.66,4.36-.81.34-1.5.98-2.22,1.47,1.15,2.12,2.14,4.01,3.19,5.87.93,1.65.58,3.01-.48,4.52-.92,1.31-1.44,2.9-2.23,4.57,2.87-.76,5.46-1.42,8.05-2.13,1.55-.43,3.14-.8,4.61-1.44,2.62-1.15,5.14-2.53,7.74-3.73,2.43-1.12,2.93-2.31,2.14-4.84-.26-.83-.04-1.81-.04-2.72-.74-1.41-1.23-2.93-1.65-4.48-.55-2.07-.93-4.2-1.63-6.22-.26-.75-1.2-1.27-1.82-1.9Zm-30.54,30.5c3.03-.78,5.43-1.38,7.82-2.01,1.54-.4,2.56-1.26,2.18-3.01-.52-2.34.64-4.98-1.33-7.1-.3-.33-.11-1.17-.05-1.77.15-1.57-.92-2.44-2.36-1.95-2.76.93-5.54,1.79-8.81,2.83.84,4.26,1.68,8.59,2.55,13.01Zm-2.82-18.61c3.44.48,5.63-3.39,8.9-2.19-.2-3.09-.41-6.31-.61-9.38-2.49.66-4.86,1.15-7.1,1.96-.88.32-2.14,1.4-2.12,2.1.06,2.52.59,5.04.93,7.5Z"/>
  <path d="m327.31,215.67c-.53-1.23-.99-1.95-1.13-2.72-.36-1.9-.61-3.83-.85-5.75-.21-1.7.37-2.84,2.22-3.21,3.58-.71,7.17-1.39,10.7-2.3,2.61-.67,5.13-1.67,7.69-2.52,3.01-1,5.99-2.1,9.04-2.96,2.07-.58,3.52.4,4.05,2.49,1.49,5.87,2.93,11.75,4.42,17.62.29,1.13.82,2.2,1.06,3.33.32,1.51.68,3.07.61,4.59-.03.7-.93,1.56-1.65,1.93-.34.18-1.45-.45-1.75-.98-.76-1.33-1.26-2.8-1.84-4.22-.08-.2.03-.49-.05-.69-2.26-6.05-4.53-12.09-6.82-18.13-.07-.17-.35-.26-.54-.39q-1.61,2.5-3.64,1.73c-1.15.88-2.14,1.65-2.63,2.02-.99-.66-1.86-1.36-1.94-1.28-3.24,3.29-7.92,3.19-11.76,5.05-1.2.58-1.86,1.08-1.56,2.6,1.11,5.63,2.21,11.27,3.04,16.95.47,3.2.47,6.48.5,9.72,0,.62-.87,1.78-1.31,1.77-.76-.03-1.67-.63-2.19-1.26-.61-.75-1.07-1.76-1.24-2.72-1-5.55-1.98-11.11-2.79-16.69-.2-1.42.25-2.93.35-3.96Z"/>
  <path d="m350.67,215.69c-1.23,1.3-2.05,2.94-3.09,3.09-1.8.26-1.04-1.64-1.15-2.62-.17-1.46.44-2.76,2.08-2.72.59.02,1.15,1.15,2.16,2.26Z"/>
  <path d="m372.89,206c-.49,1.15-.88,2.06-1.27,2.98-.45-.75-1.2-1.49-1.25-2.27-.05-.64.72-1.35,1.13-2.02.43.41.87.82,1.4,1.32Z"/>
  <path class="cls-1" d="m304.28,187.24c.63.63,1.57,1.15,1.82,1.9.69,2.02,1.07,4.15,1.63,6.22.41,1.54.91,3.06,1.65,4.48,0,.91-.22,1.89.04,2.72.79,2.53.29,3.72-2.14,4.84-2.6,1.2-5.12,2.58-7.74,3.73-1.47.64-3.06,1.01-4.61,1.44-2.58.71-5.18,1.37-8.05,2.13.79-1.67,1.3-3.26,2.23-4.57,1.07-1.51,1.41-2.88.48-4.52-1.05-1.86-2.04-3.75-3.19-5.87.72-.49,1.41-1.13,2.22-1.47,3.54-1.49,7.15-2.81,10.66-4.36,1.77-.78,3.52-1.76,5.02-2.98,1.24-1,1.09-2.47.05-3.74l-.06.06Z"/>
  <path class="cls-1" d="m273.74,217.74c-.87-4.42-1.71-8.75-2.55-13.01,3.27-1.05,6.05-1.9,8.81-2.83,1.44-.48,2.51.38,2.36,1.95-.06.6-.26,1.44.05,1.77,1.97,2.12.81,4.76,1.33,7.1.39,1.75-.64,2.61-2.18,3.01-2.39.63-4.79,1.24-7.82,2.01Z"/>
  <path class="cls-1" d="m304.34,187.18c-3.33-.82-5.95,1.4-8.84,2.27-2.75.83-5.21,2.59-7.89,3.76-.44.19-1.81-.49-1.88-.91-.33-1.97-.44-3.99-.41-5.99,0-.5.75-1.21,1.31-1.43,2.75-1.07,5.54-2.06,8.34-2.98,1.69-.55,3.44-.93,5.18-1.34,1.67-.39,2.87-.14,3.1,1.96.18,1.59.67,3.15,1.02,4.72,0,0,.06-.06.06-.06Z"/>
  <path class="cls-1" d="m270.92,199.13c-.34-2.46-.88-4.98-.93-7.5-.02-.71,1.24-1.78,2.12-2.1,2.25-.82,4.61-1.3,7.1-1.96.2,3.07.41,6.29.61,9.38-3.27-1.2-5.46,2.66-8.9,2.19Z"/>
</svg>